<mxfile host="65bd71144e">
    <diagram name="第 1 页" id="Wu566Kua2JstjRgyABkP">
        <mxGraphModel dx="957" dy="693" grid="1" gridSize="10" guides="1" tooltips="1" connect="1" arrows="1" fold="1" page="1" pageScale="1" pageWidth="827" pageHeight="1169" math="0" shadow="0">
            <root>
                <mxCell id="0"/>
                <mxCell id="1" parent="0"/>
                <mxCell id="KWj4d7zj0b5VkLXG1piS-27" style="edgeStyle=orthogonalEdgeStyle;rounded=0;orthogonalLoop=1;jettySize=auto;html=1;entryX=0.5;entryY=1;entryDx=0;entryDy=0;" parent="1" source="KWj4d7zj0b5VkLXG1piS-18" target="oR2MWclAaf6PLa6PnVYV-88" edge="1">
                    <mxGeometry relative="1" as="geometry"/>
                </mxCell>
                <mxCell id="KWj4d7zj0b5VkLXG1piS-29" style="edgeStyle=orthogonalEdgeStyle;rounded=0;orthogonalLoop=1;jettySize=auto;html=1;exitX=0.5;exitY=1;exitDx=0;exitDy=0;entryX=0.5;entryY=1;entryDx=0;entryDy=0;" parent="1" source="KWj4d7zj0b5VkLXG1piS-18" target="oR2MWclAaf6PLa6PnVYV-87" edge="1">
                    <mxGeometry relative="1" as="geometry"/>
                </mxCell>
                <mxCell id="KWj4d7zj0b5VkLXG1piS-18" value="" style="rounded=1;whiteSpace=wrap;html=1;dashed=1;" parent="1" vertex="1">
                    <mxGeometry x="20" y="1090" width="700" height="450" as="geometry"/>
                </mxCell>
                <mxCell id="oR2MWclAaf6PLa6PnVYV-88" value="" style="rounded=1;whiteSpace=wrap;html=1;dashed=1;" parent="1" vertex="1">
                    <mxGeometry x="20" y="930" width="700" height="130" as="geometry"/>
                </mxCell>
                <mxCell id="KWj4d7zj0b5VkLXG1piS-28" style="edgeStyle=orthogonalEdgeStyle;rounded=0;orthogonalLoop=1;jettySize=auto;html=1;entryX=0.5;entryY=1;entryDx=0;entryDy=0;" parent="1" source="oR2MWclAaf6PLa6PnVYV-85" target="KWj4d7zj0b5VkLXG1piS-18" edge="1">
                    <mxGeometry relative="1" as="geometry"/>
                </mxCell>
                <mxCell id="oR2MWclAaf6PLa6PnVYV-85" value="" style="rounded=1;whiteSpace=wrap;html=1;dashed=1;" parent="1" vertex="1">
                    <mxGeometry x="20" y="1560" width="700" height="250" as="geometry"/>
                </mxCell>
                <mxCell id="oR2MWclAaf6PLa6PnVYV-72" value="STT" style="rounded=1;whiteSpace=wrap;html=1;fillColor=#d5e8d4;strokeColor=#82b366;" parent="1" vertex="1">
                    <mxGeometry x="100" y="1580" width="120" height="60" as="geometry"/>
                </mxCell>
                <mxCell id="oR2MWclAaf6PLa6PnVYV-73" value="&lt;font color=&quot;#000000&quot;&gt;RemoteSTT&lt;/font&gt;" style="rounded=1;whiteSpace=wrap;html=1;fillColor=#d5e8d4;strokeColor=#82b366;" parent="1" vertex="1">
                    <mxGeometry x="240" y="1580" width="120" height="60" as="geometry"/>
                </mxCell>
                <mxCell id="oR2MWclAaf6PLa6PnVYV-74" value="TTS" style="rounded=1;whiteSpace=wrap;html=1;fillColor=#d5e8d4;strokeColor=#82b366;fontColor=#000000;" parent="1" vertex="1">
                    <mxGeometry x="530" y="1580" width="120" height="60" as="geometry"/>
                </mxCell>
                <mxCell id="oR2MWclAaf6PLa6PnVYV-75" value="Speaker" style="rounded=1;whiteSpace=wrap;html=1;fillColor=#d5e8d4;strokeColor=#82b366;fontColor=#000000;" parent="1" vertex="1">
                    <mxGeometry x="100" y="1650" width="120" height="60" as="geometry"/>
                </mxCell>
                <mxCell id="oR2MWclAaf6PLa6PnVYV-89" value="Applications" style="text;html=1;align=center;verticalAlign=middle;whiteSpace=wrap;rounded=0;" parent="1" vertex="1">
                    <mxGeometry x="650" y="980" width="60" height="30" as="geometry"/>
                </mxCell>
                <mxCell id="oR2MWclAaf6PLa6PnVYV-91" value="Modules" style="text;html=1;align=center;verticalAlign=middle;whiteSpace=wrap;rounded=0;" parent="1" vertex="1">
                    <mxGeometry x="650" y="1690" width="60" height="30" as="geometry"/>
                </mxCell>
                <mxCell id="KWj4d7zj0b5VkLXG1piS-19" value="" style="group" parent="1" vertex="1" connectable="0">
                    <mxGeometry x="40" y="1400" width="660" height="120" as="geometry"/>
                </mxCell>
                <mxCell id="oR2MWclAaf6PLa6PnVYV-87" value="" style="rounded=1;whiteSpace=wrap;html=1;dashed=1;" parent="KWj4d7zj0b5VkLXG1piS-19" vertex="1">
                    <mxGeometry width="660" height="120" as="geometry"/>
                </mxCell>
                <mxCell id="oR2MWclAaf6PLa6PnVYV-76" value="Backend" style="rounded=1;whiteSpace=wrap;html=1;fillColor=#f8cecc;strokeColor=#b85450;" parent="KWj4d7zj0b5VkLXG1piS-19" vertex="1">
                    <mxGeometry x="273.42857142857144" y="36.92307692307693" width="113.14285714285714" height="55.38461538461539" as="geometry"/>
                </mxCell>
                <mxCell id="oR2MWclAaf6PLa6PnVYV-90" value="Abstraction L1" style="text;html=1;align=center;verticalAlign=middle;whiteSpace=wrap;rounded=0;" parent="KWj4d7zj0b5VkLXG1piS-19" vertex="1">
                    <mxGeometry x="575.1428571428571" y="46.15384615384615" width="75.42857142857143" height="27.692307692307693" as="geometry"/>
                </mxCell>
                <mxCell id="KWj4d7zj0b5VkLXG1piS-20" value="" style="group;fontColor=#000000;" parent="1" vertex="1" connectable="0">
                    <mxGeometry x="40" y="1260" width="660" height="120" as="geometry"/>
                </mxCell>
                <mxCell id="KWj4d7zj0b5VkLXG1piS-6" value="" style="rounded=1;whiteSpace=wrap;html=1;dashed=1;" parent="KWj4d7zj0b5VkLXG1piS-20" vertex="1">
                    <mxGeometry width="660" height="120" as="geometry"/>
                </mxCell>
                <mxCell id="KWj4d7zj0b5VkLXG1piS-7" value="&lt;span style=&quot;text-align: left;&quot;&gt;&lt;font color=&quot;#000000&quot;&gt;ContextMonitorBackend&lt;/font&gt;&lt;/span&gt;" style="rounded=1;whiteSpace=wrap;html=1;fillColor=#f8cecc;strokeColor=#b85450;" parent="KWj4d7zj0b5VkLXG1piS-20" vertex="1">
                    <mxGeometry x="150.86" y="32.31" width="129.14" height="55.38" as="geometry"/>
                </mxCell>
                <mxCell id="KWj4d7zj0b5VkLXG1piS-8" value="PureEnglishChatBackend" style="rounded=1;whiteSpace=wrap;html=1;fillColor=#f8cecc;strokeColor=#b85450;fontColor=#000000;" parent="KWj4d7zj0b5VkLXG1piS-20" vertex="1">
                    <mxGeometry x="386.57" y="32.31" width="143.43" height="55.38" as="geometry"/>
                </mxCell>
                <mxCell id="KWj4d7zj0b5VkLXG1piS-9" value="Abstraction L2" style="text;html=1;align=center;verticalAlign=middle;whiteSpace=wrap;rounded=0;" parent="KWj4d7zj0b5VkLXG1piS-20" vertex="1">
                    <mxGeometry x="575.1428571428571" y="46.15384615384615" width="75.42857142857143" height="27.692307692307693" as="geometry"/>
                </mxCell>
                <mxCell id="KWj4d7zj0b5VkLXG1piS-21" value="" style="group;fontColor=#000000;" parent="1" vertex="1" connectable="0">
                    <mxGeometry x="40" y="1130" width="660" height="110" as="geometry"/>
                </mxCell>
                <mxCell id="KWj4d7zj0b5VkLXG1piS-2" value="" style="rounded=1;whiteSpace=wrap;html=1;dashed=1;" parent="KWj4d7zj0b5VkLXG1piS-21" vertex="1">
                    <mxGeometry width="660" height="110.00000000000001" as="geometry"/>
                </mxCell>
                <mxCell id="KWj4d7zj0b5VkLXG1piS-3" value="Voice Awake Backend" style="rounded=1;whiteSpace=wrap;html=1;fillColor=#f8cecc;strokeColor=#b85450;fontColor=#000000;" parent="KWj4d7zj0b5VkLXG1piS-21" vertex="1">
                    <mxGeometry x="273.42857142857144" y="29.615384615384617" width="113.14285714285714" height="50.76923076923078" as="geometry"/>
                </mxCell>
                <mxCell id="KWj4d7zj0b5VkLXG1piS-10" value="Abstraction L3" style="text;html=1;align=center;verticalAlign=middle;whiteSpace=wrap;rounded=0;" parent="KWj4d7zj0b5VkLXG1piS-21" vertex="1">
                    <mxGeometry x="575.1428571428571" y="42.30769230769231" width="75.42857142857142" height="25.38461538461539" as="geometry"/>
                </mxCell>
                <mxCell id="KWj4d7zj0b5VkLXG1piS-30" style="edgeStyle=orthogonalEdgeStyle;rounded=0;orthogonalLoop=1;jettySize=auto;html=1;exitX=0.5;exitY=1;exitDx=0;exitDy=0;entryX=0.5;entryY=1;entryDx=0;entryDy=0;" parent="1" source="KWj4d7zj0b5VkLXG1piS-18" target="oR2MWclAaf6PLa6PnVYV-87" edge="1">
                    <mxGeometry relative="1" as="geometry">
                        <mxPoint x="370" y="1510" as="targetPoint"/>
                    </mxGeometry>
                </mxCell>
                <mxCell id="4" value="文字交互" style="rounded=1;whiteSpace=wrap;html=1;fillColor=#fff2cc;strokeColor=#d6b656;fontColor=#000000;" parent="1" vertex="1">
                    <mxGeometry x="170" y="965" width="120" height="60" as="geometry"/>
                </mxCell>
                <mxCell id="5" value="语音交互" style="rounded=1;whiteSpace=wrap;html=1;fillColor=#fff2cc;strokeColor=#d6b656;fontColor=#000000;" parent="1" vertex="1">
                    <mxGeometry x="450" y="965" width="120" height="60" as="geometry"/>
                </mxCell>
                <mxCell id="6" value="" style="group;fontColor=#000000;" parent="1" vertex="1" connectable="0">
                    <mxGeometry x="40" y="1400" width="660" height="120" as="geometry"/>
                </mxCell>
                <mxCell id="7" value="" style="rounded=1;whiteSpace=wrap;html=1;dashed=1;" parent="6" vertex="1">
                    <mxGeometry width="660" height="120" as="geometry"/>
                </mxCell>
                <mxCell id="8" value="Backend" style="rounded=1;whiteSpace=wrap;html=1;fillColor=#f8cecc;strokeColor=#b85450;fontColor=#000000;" parent="6" vertex="1">
                    <mxGeometry x="159.99857142857144" y="32.30307692307693" width="113.14285714285714" height="55.38461538461539" as="geometry"/>
                </mxCell>
                <mxCell id="9" value="Abstraction L1" style="text;html=1;align=center;verticalAlign=middle;whiteSpace=wrap;rounded=0;" parent="6" vertex="1">
                    <mxGeometry x="575.1428571428571" y="46.15384615384615" width="75.42857142857143" height="27.692307692307693" as="geometry"/>
                </mxCell>
                <mxCell id="23" value="&lt;span style=&quot;text-align: left;&quot;&gt;Backend4AliTTSSpeaker&lt;/span&gt;" style="rounded=1;whiteSpace=wrap;html=1;fillColor=#f8cecc;strokeColor=#b85450;fontColor=#000000;" vertex="1" parent="6">
                    <mxGeometry x="390" y="32.309999999999995" width="140" height="55.38" as="geometry"/>
                </mxCell>
                <mxCell id="10" value="STT" style="rounded=1;whiteSpace=wrap;html=1;fillColor=#d5e8d4;strokeColor=#82b366;fontColor=#000000;" parent="1" vertex="1">
                    <mxGeometry x="100" y="1580" width="120" height="60" as="geometry"/>
                </mxCell>
                <mxCell id="11" value="InputPreprocessing" style="rounded=1;whiteSpace=wrap;html=1;fillColor=#d5e8d4;strokeColor=#82b366;fontColor=#000000;" parent="1" vertex="1">
                    <mxGeometry x="380" y="1650" width="120" height="60" as="geometry"/>
                </mxCell>
                <mxCell id="12" value="Machine Translation" style="rounded=1;whiteSpace=wrap;html=1;fillColor=#d5e8d4;strokeColor=#82b366;fontColor=#000000;" parent="1" vertex="1">
                    <mxGeometry x="530" y="1650" width="120" height="60" as="geometry"/>
                </mxCell>
                <mxCell id="13" value="LLM" style="rounded=1;whiteSpace=wrap;html=1;fillColor=#d5e8d4;strokeColor=#82b366;fontColor=#000000;" parent="1" vertex="1">
                    <mxGeometry x="380" y="1580" width="120" height="60" as="geometry"/>
                </mxCell>
                <mxCell id="14" value="固定回复交互" style="rounded=1;whiteSpace=wrap;html=1;fillColor=#fff2cc;strokeColor=#d6b656;fontColor=#000000;" parent="1" vertex="1">
                    <mxGeometry x="310" y="965" width="120" height="60" as="geometry"/>
                </mxCell>
                <mxCell id="15" value="RemoteSpeaker" style="rounded=1;whiteSpace=wrap;html=1;fillColor=#d5e8d4;strokeColor=#82b366;fontColor=#000000;" parent="1" vertex="1">
                    <mxGeometry x="240" y="1650" width="120" height="60" as="geometry"/>
                </mxCell>
                <mxCell id="16" value="AliTTSSpeaker" style="rounded=1;whiteSpace=wrap;html=1;fillColor=#d5e8d4;strokeColor=#82b366;fontColor=#000000;" vertex="1" parent="1">
                    <mxGeometry x="100" y="1724" width="120" height="60" as="geometry"/>
                </mxCell>
                <mxCell id="17" value="&lt;div style=&quot;line-height: 19px;&quot;&gt;LLM4AliTTSSpeaker&lt;/div&gt;" style="rounded=1;whiteSpace=wrap;html=1;fillColor=#d5e8d4;strokeColor=#82b366;fontColor=#000000;" vertex="1" parent="1">
                    <mxGeometry x="380" y="1724" width="120" height="60" as="geometry"/>
                </mxCell>
                <mxCell id="18" value="&lt;div style=&quot;color: rgb(214, 214, 221); background-color: rgb(24, 24, 24); font-family: Consolas, &amp;quot;Courier New&amp;quot;, monospace; font-weight: normal; font-size: 14px; line-height: 19px; white-space: pre;&quot;&gt;&lt;br&gt;&lt;/div&gt;" style="text;whiteSpace=wrap;html=1;" vertex="1" parent="1">
                    <mxGeometry x="770" y="1560" width="200" height="40" as="geometry"/>
                </mxCell>
            </root>
        </mxGraphModel>
    </diagram>
</mxfile>